<svg id="Icons" height="512" viewBox="0 0 64 64" width="512" 
xmlns="http://www.w3.org/2000/svg">
<path d="m25.886 43.612a3 3 0 0 0 -.577 3.406l-8.615 8.615a1 1 0 0 0 -.188.26l-2.829 5.657a1 1 0 0 0 1.342 1.342l5.657-2.829a.981.981 0 0 0 .26-.188l8.616-8.615a2.965 2.965 0 0 0 3.405-.577l1.157-1.157-7.071-7.07zm-6.25 14.735-2.828 1.414 1.415-2.828 8.37-8.371 1.414 1.414z" fill="#43AD48"/>
<path d="m35.346 33.724h3v12h-3z" fill="#43AD48" transform="matrix(.707 -.707 .707 .707 -17.297 37.69)"/>
<path d="m61.241 15.328a6 6 0 0 0 -8.485 0l-17.677 17.678 8.484 8.485 17.678-17.678a6 6 0 0 0 0-8.485z" fill="#43AD48"/>
<path d="m31.5 37.388h3.364v12h-3.364z" fill="#43AD48" transform="matrix(.707 -.707 .707 .707 -20.961 36.171)"/>
<g fill="#233F3F">
<path d="m48 1h-44a3 3 0 0 0 -3 3v28a3 3 0 0 0 3 3h44a3 3 0 0 0 3-3v-28a3 3 0 0 0 -3-3zm1 31a1 1 0 0 1 -1 1h-44a1 1 0 0 1 -1-1v-28a1 1 0 0 1 1-1h44a1 1 0 0 1 1 1z"/><path d="m34 5h-28a1 1 0 0 0 -1 1v16a1 1 0 0 0 1 1h28a1 1 0 0 0 1-1v-16a1 1 0 0 0 -1-1zm-1 16h-26v-14h26z"/><path d="m12 15a1 1 0 0 0 1-1 3 3 0 0 1 6 0 5 5 0 0 0 10 0 1 1 0 0 0 -2 0 3 3 0 0 1 -6 0 5 5 0 0 0 -10 0 1 1 0 0 0 1 1z"/><path d="m8 25a3 3 0 1 0 3 3 3 3 0 0 0 -3-3zm0 4a1 1 0 1 1 1-1 1 1 0 0 1 -1 1z"/><path d="m20 25a3 3 0 1 0 3 3 3 3 0 0 0 -3-3zm0 4a1 1 0 1 1 1-1 1 1 0 0 1 -1 1z"/><path d="m32 25a3 3 0 1 0 3 3 3 3 0 0 0 -3-3zm0 4a1 1 0 1 1 1-1 1 1 0 0 1 -1 1z"/><path d="m44 25a3 3 0 1 0 3 3 3 3 0 0 0 -3-3zm0 4a1 1 0 1 1 1-1 1 1 0 0 1 -1 1z"/><path d="m46 8h-8a1 1 0 0 0 0 2h8a1 1 0 0 0 0-2z"/><path d="m46 13h-8a1 1 0 0 0 0 2h8a1 1 0 0 0 0-2z"/>
<path d="m46 18h-8a1 1 0 0 0 0 2h8a1 1 0 0 0 0-2z"/></g></svg>