<svg id="Line" height="512" viewBox="0 0 64 64" width="512" xmlns="http://www.w3.org/2000/svg"><path d="m62 61h-35.257l5.431-.857a1 1 0 0 0 .754-.573l4.144-9.119-11.523-11.523-9.119 4.145a1 1 0 0 0 -.573.753l-2.794 17.7 9.713-9.713a1 1 0 1 1 1.414 1.414l-9.776 9.773h47.586a1 1 0 0 0 0-2z" fill="#43AD48"/><path d="m51.67 39.02a72.249 72.249 0 0 0 6.609-7.189l-14.11-14.11a70.814 70.814 0 0 0 -17.1 19.9l11.315 11.314a72.226 72.226 0 0 0 13.286-9.915z" fill="#43AD48"/><path d="m61.319 27.812a9.439 9.439 0 0 0 -13.13-13.13c-.828.576-1.635 1.182-2.439 1.792l13.776 13.776c.611-.803 1.217-1.61 1.793-2.438z" fill="#43AD48"/><g fill="#233F3F"><path d="m11 10v-3a1 1 0 0 0 -2 0v2h-2a1 1 0 0 0 0 2h3a1 1 0 0 0 1-1z"/><path d="m30 22a4 4 0 1 0 4-4 4 4 0 0 0 -4 4zm6 0a2 2 0 1 1 -2-2 2 2 0 0 1 2 2z"/><path d="m47.43 37.809-4.812-13.225a8.987 8.987 0 0 0 -7.618-11.525v-9.059a3 3 0 0 0 -3-3h-22a1 1 0 0 0 -.707.293l-8 8a1 1 0 0 0 -.293.707v38a3 3 0 0 0 3 3h28a3 3 0 0 0 3-3v-15.134l3.041 8.365a1 1 0 0 0 1.846.081l1.967-4.223 4.213 1.968a1 1 0 0 0 1.363-1.248zm-6.43-15.809a7 7 0 1 1 -7-7 7.008 7.008 0 0 1 7 7zm-9.334 8.682-2.761 7.594-1.369-2.938a1 1 0 0 0 -1.329-.484l-2.932 1.369 3.319-9.123a9.022 9.022 0 0 0 5.072 3.582zm.334 18.318h-28a1 1 0 0 1 -1-1v-37.586l7.414-7.414h21.586a1 1 0 0 1 1 1v9.059a8.987 8.987 0 0 0 -7.618 11.525l-4.812 13.225a1 1 0 0 0 1.363 1.248l4.213-1.968 1.967 4.223a1 1 0 0 0 1.846-.081l3.041-8.365v15.134a1 1 0 0 1 -1 1zm9.793-14.146a1 1 0 0 0 -1.329.484l-1.364 2.938-2.761-7.594a9.022 9.022 0 0 0 5.072-3.58l3.319 9.121z"/><path d="m9 18a1 1 0 0 0 1 1h12a1 1 0 0 0 0-2h-12a1 1 0 0 0 -1 1z"/><path d="m18 25h-8a1 1 0 0 0 0 2h8a1 1 0 0 0 0-2z"/><path d="m18 33h-8a1 1 0 0 0 0 2h8a1 1 0 0 0 0-2z"/><path d="m18 41h-8a1 1 0 0 0 0 2h8a1 1 0 0 0 0-2z"/></g></svg>