<svg id="Icons" height="512" viewBox="0 0 64 64" width="512" xmlns="http://www.w3.org/2000/svg">
<path d="m44.465 43 13.1 13.1a20.887 20.887 0 0 0 5.435-13.1z" fill="#43AD48"/>
<path d="m41.344 42.708a1.013 1.013 0 0 1 -.293-.708v-20.949a20.985 20.985 0 1 0 15.1 36.465z" fill="#43AD48"/><path d="m43.051 41h19.949a20.992 20.992 0 0 0 -19.949-19.949z" fill="#43AD48"/><g fill="#233F3F"><path d="m49 5h-22v-3a1 1 0 0 0 -2 0v3h-22a2 2 0 0 0 -2 2v3a2 2 0 0 0 2 2v25a3 3 0 0 0 3 3h19v1.491l-10.588 7.7a1 1 0 1 0 1.176 1.618l9.412-6.845v6.036a1 1 0 0 0 2 0v-6.036l9.412 6.845a1 1 0 1 0 1.176-1.618l-10.588-7.7v-1.491h19a3 3 0 0 0 3-3v-25a2 2 0 0 0 2-2v-3a2 2 0 0 0 -2-2zm-2 32a1 1 0 0 1 -1 1h-40a1 1 0 0 1 -1-1v-25h42zm2-27h-46v-3h46z"/><path d="m10.6 30.8 3.306-2.48 6.387 6.387a1 1 0 0 0 1.385.027l11.322-10.45v2.716a1 1 0 0 0 2 0v-5c0-.441-.285-.868-1-1h-5a1 1 0 0 0 0 2h2.443l-10.415 9.613-6.321-6.32a1 1 0 0 0 -1.307-.093l-4 3a1 1 0 0 0 1.2 1.6z"/><path d="m13 20.816v2.184a1 1 0 0 0 2 0v-2.184a3 3 0 1 0 -2 0zm1-3.816a1 1 0 1 1 -1 1 1 1 0 0 1 1-1z"/><path d="m20 25.816v2.184a1 1 0 0 0 2 0v-2.184a3 3 0 1 0 -2 0zm1-3.816a1 1 0 1 1 -1 1 1 1 0 0 1 1-1z"/><path d="m38 17h4a1 1 0 0 0 0-2h-4a1 1 0 0 0 0 2z"/><path d="m38 23h4a1 1 0 0 0 0-2h-4a1 1 0 0 0 0 2z"/><path d="m38 29h4a1 1 0 0 0 0-2h-4a1 1 0 0 0 0 2z"/><path d="m38 35h4a1 1 0 0 0 0-2h-4a1 1 0 0 0 0 2z"/></g></svg>