<svg id="Icons" height="512" viewBox="0 0 64 64" width="512" xmlns="http://www.w3.org/2000/svg"><g fill="#43AD48"><circle cx="57" cy="44" r="6"/><path d="m60 36.589v-20.589a3 3 0 0 0 -6 0v20.589a7.935 7.935 0 0 1 6 0z"/><path d="m54 51.411v8.589a3 3 0 0 0 6 0v-8.589a7.935 7.935 0 0 1 -6 0z"/><circle cx="43" cy="33" r="6"/><path d="m46 25.589v-9.589a3 3 0 0 0 -6 0v9.589a7.935 7.935 0 0 1 6 0z"/><path d="m40 40.411v19.589a3 3 0 0 0 6 0v-19.589a7.935 7.935 0 0 1 -6 0z"/><circle cx="29" cy="51" r="6"/><path d="m32 43.589v-27.589a3 3 0 0 0 -6 0v27.589a7.935 7.935 0 0 1 6 0z"/><path d="m26 58.411v1.589a3 3 0 0 0 6 0v-1.589a7.935 7.935 0 0 1 -6 0z"/></g><path d="m26 28a6 6 0 1 0 6 6 6.006 6.006 0 0 0 -6-6zm0 10a4 4 0 1 1 4-4 4 4 0 0 1 -4 4z" fill="#233F3F"/><path d="m48 1h-44a3 3 0 0 0 -3 3v28a3 3 0 0 0 3 3h9.055a13 13 0 0 0 .241 1.716l-3.152 1.82a1 1 0 0 0 -.367 1.364l3 5.2a1 1 0 0 0 1.367.366l3.148-1.818a12.98 12.98 0 0 0 4.708 2.709v3.643a1 1 0 0 0 1 1h6a1 1 0 0 0 1-1v-3.643a12.98 12.98 0 0 0 4.708-2.711l3.148 1.818a1 1 0 0 0 1.367-.366l3-5.2a1 1 0 0 0 -.367-1.366l-3.156-1.816a13 13 0 0 0 .245-1.716h9.055a3 3 0 0 0 3-3v-28a3 3 0 0 0 -3-3zm-44 2h44a1 1 0 0 1 1 1v5h-46v-5a1 1 0 0 1 1-1zm35.99 36.769-2 3.462-2.932-1.692a1 1 0 0 0 -1.213.165 10.97 10.97 0 0 1 -5.095 2.934 1 1 0 0 0 -.75.968v3.394h-4v-3.394a1 1 0 0 0 -.75-.968 10.97 10.97 0 0 1 -5.095-2.938 1 1 0 0 0 -1.213-.165l-2.932 1.696-2-3.462 2.936-1.7a1 1 0 0 0 .464-1.134 10.732 10.732 0 0 1 0-5.876 1 1 0 0 0 -.464-1.134l-2.936-1.7 2-3.462 2.932 1.692a1 1 0 0 0 1.213-.165 10.97 10.97 0 0 1 5.095-2.934 1 1 0 0 0 .75-.968v-3.388h4v3.394a1 1 0 0 0 .75.968 10.97 10.97 0 0 1 5.095 2.938 1 1 0 0 0 1.213.165l2.932-1.692 2 3.462-2.936 1.7a1 1 0 0 0 -.464 1.134 10.732 10.732 0 0 1 0 5.876 1 1 0 0 0 .464 1.134zm8.01-6.769h-9.055a13 13 0 0 0 -.241-1.716l3.152-1.82a1 1 0 0 0 .367-1.366l-3-5.2a1 1 0 0 0 -1.367-.366l-3.148 1.818a12.98 12.98 0 0 0 -4.708-2.707v-3.643a1 1 0 0 0 -1-1h-6a1 1 0 0 0 -1 1v3.643a12.98 12.98 0 0 0 -4.708 2.711l-3.148-1.818a1 1 0 0 0 -1.367.366l-3 5.2a1 1 0 0 0 .367 1.366l3.152 1.82a13 13 0 0 0 -.241 1.712h-9.055a1 1 0 0 1 -1-1v-21h46v21a1 1 0 0 1 -1 1z" fill="#233F3F"/><circle cx="6" cy="5.999" fill="#233F3F" r="1"/><circle cx="10" cy="5.999" fill="#233F3F" r="1"/><circle cx="14" cy="5.999" fill="#233F3F" r="1"/></svg>