<svg fill="#43AD48" height="512" viewBox="0 0 44 60" width="512" xmlns="http://www.w3.org/2000/svg"><g id="Page-1"><g id="047---Filtered-Water" ><path id="Shape" d="m2 54c.00330738 3.3123376 2.68766243 5.9966926 6 6h28c3.3123376-.0033074 5.9966926-2.6876624 6-6v-46.184c1.1943509-.42225455 1.9947486-1.54921457 2-2.816v-2c0-1.65685425-1.3431458-3-3-3h-38c-1.65685425 0-3 1.34314575-3 3v2c.00525139 1.26678543.80564914 2.39374545 2 2.816zm34 4h-28c-2.209139 0-4-1.790861-4-4v-2h36v2c0 2.209139-1.790861 4-4 4zm-10-21h-8v-3h8zm-.211-8.407c-.4601921.0993369-.7887712.5062086-.789.977v2.43h-6v-2.43c-.0004317-.4713972-.330013-.8784781-.791-.977-4.3446765-.9431914-8.1844403-3.4658539-10.775-7.079 1.49957995.3289053 3.0307853.4918851 4.566.486 3.6419322.1186077 7.2576176-.6552012 10.532-2.254 2.307383-1.1886091 4.8728102-1.7883997 7.468-1.746 4.056 0 6.446.781 7.815 1.536-2.4934024 4.6297509-6.8858794 7.9383556-12.024 9.057zm12.875-10.87c-1.618-.861-4.319-1.723-8.664-1.723-2.8757019-.0368454-5.717712.6218532-8.284 1.92-3.0175869 1.4839473-6.3553619 2.1984977-9.716 2.08-2.05431841.0411884-4.09897761-.2919074-6.034-.983-.01681491-.0039679-.0338426-.0069728-.051-.009-1.25349947-2.4836865-1.90926769-5.2259277-1.915-8.008v-3h36v3c-.0049337 2.3062588-.4579981 4.5895814-1.334 6.723zm-36.664-14.723c0-.55228475.44771525-1 1-1h38c.5522847 0 1 .44771525 1 1v2c0 .55228475-.4477153 1-1 1h-38c-.55228475 0-1-.44771525-1-1zm15 27.362v1.916c-.6167513.3544126-.997855 1.0106732-1 1.722v3c0 1.1045695.8954305 2 2 2h2.155c-.948 1.533-2.155 3.734-2.155 5 0 2.209139 1.790861 4 4 4s4-1.790861 4-4c0-1.266-1.207-3.467-2.155-5h2.155c1.1045695 0 2-.8954305 2-2v-3c-.002145-.7113268-.3832487-1.3675874-1-1.722v-1.916c5.6978611-1.4910272 10.4519-5.4120122 13-10.722v30.36h-36v-30.36c2.54809997 5.3099878 7.3021389 9.2309728 13 10.722zm5 9.459c1.067 1.7 2 3.516 2 4.179 0 1.1045695-.8954305 2-2 2s-2-.8954305-2-2c0-.662.934-2.475 2-4.179z"/><circle id="Oval" cx="27" cy="21" r="1"/><circle id="Oval" cx="32" cy="22" r="1"/><circle id="Oval" cx="27" cy="25" r="1"/><circle id="Oval" cx="16" cy="25" r="1"/><circle id="Oval" cx="21" cy="27" r="1"/><circle id="Oval" cx="22" cy="23" r="1"/><path id="Shape" d="m9 10h-2c-.55228475 0-1 .4477153-1 1s.44771525 1 1 1h2c.55228475 0 1-.4477153 1-1s-.44771525-1-1-1z"/><path id="Shape" d="m25 10h-12c-.5522847 0-1 .4477153-1 1s.4477153 1 1 1h12c.5522847 0 1-.4477153 1-1s-.4477153-1-1-1z"/></g></g></svg>