<?xml version="1.0" encoding="UTF-8"?>
<!DOCTYPE svg PUBLIC "-//W3C//DTD SVG 1.1//EN" "http://www.w3.org/Graphics/SVG/1.1/DTD/svg11.dtd">
<!-- Creator: CorelDRAW X7 -->
<svg xmlns="http://www.w3.org/2000/svg" xml:space="preserve" width="176mm" height="31mm" version="1.1" style="shape-rendering:geometricPrecision; text-rendering:geometricPrecision; image-rendering:optimizeQuality; fill-rule:evenodd; clip-rule:evenodd"
viewBox="0 0 17600 3100"
 xmlns:xlink="http://www.w3.org/1999/xlink">
 <defs>
  <style type="text/css">
   <![CDATA[
    .fil1 {fill:#0A3131}
    .fil0 {fill:#43AD48}
    .fil2 {fill:#003333;fill-rule:nonzero}
   ]]>
  </style>
 </defs>
 <g id="Слой_x0020_1">
  <metadata id="CorelCorpID_0Corel-Layer"/>
  <g id="_2618965071664">
   <path class="fil0" d="M193 1447l849 -1408 961 1593 -852 1412c-483,35 -834,-189 -1039,-588 -142,-331 -129,-667 81,-1009z"/>
   <polygon class="fil1" points="1932,42 2841,1617 2015,3048 1570,3048 2422,1635 1461,42 "/>
   <polygon class="fil1" points="3576,42 3576,3048 2457,3048 3309,1635 2348,42 "/>
   <path class="fil2" d="M5327 42l266 0 0 1289 -266 0 0 -856 -517 856 -265 0 0 -1289 265 0 0 858 517 -858zm1588 1289l-266 0 0 -553 -517 0 0 553 -266 0 0 -1289 266 0 0 522 517 0 0 -522 266 0 0 1289zm1377 -524l-153 0 0 524 -266 0 0 -524 -157 0 -280 524 -331 0 402 -691 -383 -598 330 0 287 520 132 0 0 -520 266 0 0 520 129 0 280 -520 329 0 -375 598 395 691 -332 0 -273 -524zm1539 -36l-509 0 0 346 598 0 0 214 -864 0 0 -1289 862 0 0 216 -596 0 0 306 509 0 0 207zm1337 560l-266 0 0 -553 -518 0 0 553 -266 0 0 -1289 266 0 0 522 518 0 0 -522 266 0 0 1289zm1050 -560l-510 0 0 346 598 0 0 214 -864 0 0 -1289 862 0 0 216 -596 0 0 306 510 0 0 207zm552 107l0 453 -265 0 0 -1289 503 0c96,0 181,18 255,53 73,36 130,86 169,151 40,66 60,140 60,223 0,127 -44,226 -130,300 -86,72 -206,109 -359,109l-233 0zm0 -216l238 0c70,0 123,-16 160,-49 37,-33 56,-80 56,-142 0,-63 -19,-114 -56,-153 -37,-39 -89,-59 -154,-60l-244 0 0 404zm1996 669l-266 0 0 -553 -518 0 0 553 -265 0 0 -1289 265 0 0 522 518 0 0 -522 266 0 0 1289zm545 -825l207 0c152,0 272,37 361,111 89,73 133,172 133,297 0,125 -44,226 -132,302 -89,75 -206,114 -352,115l-484 0 0 -1289 267 0 0 464zm1077 825l-265 0 0 -1289 265 0 0 1289zm-1077 -611l0 397 212 0c67,0 122,-18 162,-56 40,-37 61,-87 61,-149 0,-59 -20,-105 -58,-139 -39,-34 -92,-52 -159,-53l-218 0zm2182 51l-510 0 0 346 599 0 0 214 -864 0 0 -1289 862 0 0 216 -597 0 0 306 510 0 0 207zm-11928 1843c-9,139 -61,248 -153,328 -92,80 -214,119 -365,119 -165,0 -295,-55 -390,-167 -95,-111 -142,-264 -142,-458l0 -79c0,-124 21,-233 65,-328 44,-94 106,-167 187,-217 82,-51 176,-76 283,-76 149,0 269,40 360,119 91,80 143,192 157,336l-265 0c-7,-83 -30,-144 -70,-181 -39,-38 -100,-56 -182,-56 -88,0 -155,31 -198,95 -44,63 -67,162 -68,295l0 98c0,139 21,241 63,305 42,65 109,97 200,97 82,0 143,-19 184,-56 40,-38 63,-95 69,-174l265 0zm991 -860l266 0 0 1289 -266 0 0 -856 -517 856 -265 0 0 -1289 265 0 0 858 517 -858zm1551 860c-10,139 -61,248 -154,328 -92,80 -214,119 -365,119 -165,0 -295,-55 -390,-167 -95,-111 -142,-264 -142,-458l0 -79c0,-124 22,-233 66,-328 43,-94 106,-167 187,-217 81,-51 175,-76 282,-76 149,0 269,40 360,119 91,80 144,192 158,336l-266 0c-6,-83 -30,-144 -70,-181 -39,-38 -100,-56 -182,-56 -88,0 -154,31 -198,95 -44,63 -67,162 -68,295l0 98c0,139 21,241 63,305 43,65 109,97 200,97 82,0 143,-19 184,-56 40,-38 63,-95 69,-174l266 0zm1162 -644l-395 0 0 1073 -266 0 0 -1073 -389 0 0 -216 1050 0 0 216zm969 513l-510 0 0 346 599 0 0 214 -864 0 0 -1289 862 0 0 216 -597 0 0 306 510 0 0 207zm634 -729l331 935 330 -935 349 0 0 1289 -267 0 0 -352 27 -608 -348 960 -183 0 -347 -960 27 608 0 352 -266 0 0 -1289 347 0zm1555 464l207 0c151,0 272,37 361,111 88,73 133,172 133,297 0,125 -44,226 -133,302 -88,75 -205,114 -352,115l-484 0 0 -1289 268 0 0 464zm1077 825l-266 0 0 -1289 266 0 0 1289zm-1077 -611l0 397 211 0c68,0 122,-18 163,-56 40,-37 60,-87 60,-149 0,-59 -19,-105 -58,-139 -38,-34 -91,-52 -159,-53l-217 0z"/>
  </g>
 </g>
</svg>
