<?xml version="1.0"?>
<svg xmlns="http://www.w3.org/2000/svg" xmlns:xlink="http://www.w3.org/1999/xlink" xmlns:svgjs="http://svgjs.com/svgjs" version="1.1" width="512" height="512" x="0" y="0" viewBox="0 0 64 64" style="enable-background:new 0 0 512 512" xml:space="preserve" class=""><g><g xmlns="http://www.w3.org/2000/svg" fill="#c4a2fc"><path d="m48 21a7 7 0 1 0 7 7 7 7 0 0 0 -7-7zm0 9a2 2 0 1 1 2-2 2 2 0 0 1 -2 2z" fill="#43ad48" data-original="#c4a2fc" style="" class=""/><path d="m48 19a8.936 8.936 0 0 1 3 .525v-3.525a3 3 0 0 0 -6 0v3.525a8.936 8.936 0 0 1 3-.525z" fill="#43ad48" data-original="#c4a2fc" style="" class=""/><path d="m59.981 52.8-3.648-18.235a1 1 0 0 0 -1.7-.489 9.012 9.012 0 0 1 -4.033 2.536.994.994 0 0 0 -.68 1.188l5.08 20.324v3.876a1 1 0 0 0 2 0v-3.723l2.857-4.762a1.006 1.006 0 0 0 .124-.715z" fill="#43ad48" data-original="#c4a2fc" style="" class=""/><path d="m39.667 34.565-3.647 18.235a1 1 0 0 0 .123.711l2.857 4.766v3.723a1 1 0 0 0 2 0v-3.876l5.08-20.324a.993.993 0 0 0 -.677-1.192 9 9 0 0 1 -4.032-2.536 1 1 0 0 0 -1.704.493z" fill="#43ad48" data-original="#c4a2fc" style="" class=""/></g><path xmlns="http://www.w3.org/2000/svg" d="m49 1h-3a3 3 0 0 0 -3 3v5h-36a3 3 0 0 0 -3 3v28a3 3 0 0 0 3 3h42a5.006 5.006 0 0 0 5-5v-32a5.006 5.006 0 0 0 -5-5zm0 40h-42a1 1 0 0 1 -1-1v-28a1 1 0 0 1 1-1h36v21a3 3 0 0 0 3 3h3a3 3 0 0 1 0 6zm3-7a4.98 4.98 0 0 0 -3-1h-3a1 1 0 0 1 -1-1v-28a1 1 0 0 1 1-1h3a3 3 0 0 1 3 3z" fill="#233f3f" data-original="#151a6a" style="" class=""/><path xmlns="http://www.w3.org/2000/svg" d="m36 16a1 1 0 0 0 0-2h-10a1 1 0 0 0 -1 1v10l-11-.03v-8.97h3a1 1 0 0 0 0-2h-4a1 1 0 0 0 -1 1v22a1 1 0 0 0 1 1h8a1 1 0 0 0 0-2h-7v-9.033l12 .033a1 1 0 0 0 1-1v-4.172l8 .153v9.019h-9a1 1 0 0 0 0 2h4.948l.039 3h-4.987a1 1 0 0 0 0 2h10a1 1 0 0 0 0-2h-3.013l-.038-3h3.051a1 1 0 0 0 1-1v-11a1 1 0 0 0 -.981-1l-9.019-.172v-3.828z" fill="#233f3f" data-original="#151a6a" style="" class=""/></g></svg>
