<?xml version="1.0"?>
<svg xmlns="http://www.w3.org/2000/svg" xmlns:xlink="http://www.w3.org/1999/xlink" xmlns:svgjs="http://svgjs.com/svgjs" version="1.1" width="512" height="512" x="0" y="0" viewBox="0 0 64 64" style="enable-background:new 0 0 512 512" xml:space="preserve" class=""><g><path xmlns="http://www.w3.org/2000/svg" d="m61.5 49.54-4.89-2.82a12.48 12.48 0 0 0 0-5.44l4.89-2.82a1 1 0 0 0 .37-1.36l-3-5.2a1 1 0 0 0 -1.37-.36l-4.88 2.81a13.13 13.13 0 0 0 -4.71-2.71v-5.64a1 1 0 0 0 -1-1h-6a1 1 0 0 0 -1 1v5.64a13.21 13.21 0 0 0 -4.71 2.71l-4.88-2.81a1 1 0 0 0 -1.32.36l-3 5.2a1 1 0 0 0 .36 1.36l4.89 2.82a12.48 12.48 0 0 0 0 5.44l-4.89 2.82a1 1 0 0 0 -.36 1.36l3 5.2a1 1 0 0 0 1.36.36l4.88-2.81a13.21 13.21 0 0 0 4.71 2.71v5.64a1 1 0 0 0 1 1h6a1 1 0 0 0 1-1v-5.64a13.13 13.13 0 0 0 4.71-2.71l4.88 2.81a1 1 0 0 0 1.37-.36l3-5.2a1 1 0 0 0 -.41-1.36zm-17.59.46a6 6 0 1 1 6-6 6 6 0 0 1 -6 6z" fill="#43ad48" data-original="#c4a2fc" style="" class=""/><circle xmlns="http://www.w3.org/2000/svg" cx="43.91" cy="44" fill="#43ad48" r="4" data-original="#c4a2fc" style="" class=""/><g xmlns="http://www.w3.org/2000/svg" fill="#151a6a"><path d="m27.79 45h-6a1 1 0 1 0 0 2h6a1 1 0 0 0 0-2z" fill="#233f3f" data-original="#151a6a" style="" class=""/><path d="m46.19 34a7 7 0 0 0 -5-6l-9.19-2.71a3.47 3.47 0 0 0 -2.16.11v-1.74a7.39 7.39 0 0 0 3.32-5.15 57.62 57.62 0 0 0 .63-6.51 9 9 0 0 0 -5.21-8.13 3 3 0 0 0 -2.98-2.87h-1.6a3 3 0 0 0 -3 2.87 9 9 0 0 0 -5.21 8.13 57.84 57.84 0 0 0 .68 6.51 7.21 7.21 0 0 0 3.32 5.15v1.74a3.44 3.44 0 0 0 -2.15-.11l-9.21 2.63a7 7 0 0 0 -5 6l-1.43 13.78a3 3 0 0 0 3 3.3h39.58a3 3 0 0 0 3-3.3zm-10.4 6a1 1 0 0 1 -2 0v-12.1l2 .57zm-4-28h-3.9l.54-6a7 7 0 0 1 3.36 6zm-7.79-9h1.6a1 1 0 0 1 1 1.09l-.72 7.91h-2.18l-.7-7.91a1 1 0 0 1 1-1.09zm-2.85 3 .55 6h-3.91a7 7 0 0 1 3.36-6zm-2.69 12.27-.54-4.27h13.74l-.54 4.27c-.4 3.2-3.24 4-5.17 5.67a2 2 0 0 1 -2.32 0c-2.01-1.72-4.77-2.47-5.17-5.67zm4 7.3a4 4 0 0 0 4.65 0l.67-.48v2.22l-2.15 3.45a1 1 0 0 1 -1.7 0l-2.15-3.45v-2.22zm-2.73 2.24 2.51 4a3 3 0 0 0 5.08 0l2.51-4a1.4 1.4 0 0 1 1.56-.6l.39.12v9.67h-14v-9.67l.39-.12a1.4 1.4 0 0 1 1.57.6zm-5.95.66 2-.57v12.1a1 1 0 0 1 -2 0zm-9.78 19.43 1.38-13.75a5 5 0 0 1 3.62-4.31l2.81-.8v19.96h-6.81a1 1 0 0 1 -1-1.1zm9.79 1.1v-6.18a3 3 0 0 0 4-2.82v-1h14v1a3 3 0 0 0 4 2.82v6.18zm30.79 0h-6.79v-20l2.81.8a5 5 0 0 1 3.6 4.31l1.38 13.79a1 1 0 0 1 -1 1.1z" fill="#233f3f" data-original="#151a6a" style="" class=""/></g></g></svg>
