<?xml version="1.0"?>
<svg xmlns="http://www.w3.org/2000/svg" xmlns:xlink="http://www.w3.org/1999/xlink" xmlns:svgjs="http://svgjs.com/svgjs" version="1.1" width="512" height="512" x="0" y="0" viewBox="0 0 64 64" style="enable-background:new 0 0 512 512" xml:space="preserve" class=""><g><path xmlns="http://www.w3.org/2000/svg" d="m41 20.025a21.49 21.49 0 0 0 -.5 42.975v-18.117a4 4 0 1 1 2 0v18.066a21.488 21.488 0 0 0 -1.5-42.924zm-9.4 32.314a1 1 0 0 1 -1.414 0 16 16 0 0 1 0-22.627 1 1 0 0 1 1.414 1.414 14 14 0 0 0 0 19.8 1 1 0 0 1 0 1.413zm4.242-5.656a1 1 0 0 1 -1.413 1.417 10.011 10.011 0 0 1 0-14.143 1 1 0 0 1 1.414 1.414 8.011 8.011 0 0 0 0 11.312zm11.315 1.417a1 1 0 0 1 0-1.414 8.011 8.011 0 0 0 0-11.315 1 1 0 0 1 1.414-1.414 10.011 10.011 0 0 1 0 14.143 1 1 0 0 1 -1.414 0zm5.656 4.242a1 1 0 0 1 -1.413-1.417 14 14 0 0 0 0-19.8 1 1 0 0 1 1.414-1.414 16 16 0 0 1 0 22.627z" fill="#43ad48" data-original="#c4a2fc" style=""/><g xmlns="http://www.w3.org/2000/svg" fill="#151a6a"><path d="m46.132 11.987-8.632 11.098v-9.256a3 3 0 0 0 -5.368-1.842l-9.021 11.6-3.346-20.08a2.991 2.991 0 0 0 -2.959-2.507h-4.612a2.991 2.991 0 0 0 -2.959 2.507l-3.582 21.493h-1.153a3 3 0 0 0 -3 3v18a3 3 0 0 0 3 3h44a3 3 0 0 0 3-3v-32.171a3 3 0 0 0 -5.368-1.842zm-34.924-8.151a1 1 0 0 1 .986-.836h4.612a1 1 0 0 1 .986.836l.527 3.164h-7.638zm-.861 5.164h8.306l.666 4h-9.638zm-.995 5.97a.924.924 0 0 0 .148.03h10a.924.924 0 0 0 .148-.03l1.672 10.03h-13.64zm40.148 31.03a1 1 0 0 1 -1 1h-44a1 1 0 0 1 -1-1v-18a1 1 0 0 1 1-1h18a1.128 1.128 0 0 0 .789-.386l10.421-13.4a1 1 0 0 1 1.789.614v12.172a1 1 0 0 0 1.789.614l10.421-13.4a1 1 0 0 1 1.79.614z" fill="#233f3f" data-original="#151a6a" style="" class=""/><path d="m42.5 31h-2a3 3 0 0 0 -3 3v2a3 3 0 0 0 3 3h2a3 3 0 0 0 3-3v-2a3 3 0 0 0 -3-3zm1 5a1 1 0 0 1 -1 1h-2a1 1 0 0 1 -1-1v-2a1 1 0 0 1 1-1h2a1 1 0 0 1 1 1z" fill="#233f3f" data-original="#151a6a" style="" class=""/><path d="m28.5 39h2a3 3 0 0 0 3-3v-2a3 3 0 0 0 -3-3h-2a3 3 0 0 0 -3 3v2a3 3 0 0 0 3 3zm-1-5a1 1 0 0 1 1-1h2a1 1 0 0 1 1 1v2a1 1 0 0 1 -1 1h-2a1 1 0 0 1 -1-1z" fill="#233f3f" data-original="#151a6a" style="" class=""/><path d="m16.5 39h2a3 3 0 0 0 3-3v-2a3 3 0 0 0 -3-3h-2a3 3 0 0 0 -3 3v2a3 3 0 0 0 3 3zm-1-5a1 1 0 0 1 1-1h2a1 1 0 0 1 1 1v2a1 1 0 0 1 -1 1h-2a1 1 0 0 1 -1-1z" fill="#233f3f" data-original="#151a6a" style="" class=""/><path d="m44.5 43h-36a1 1 0 0 0 0 2h36a1 1 0 0 0 0-2z" fill="#233f3f" data-original="#151a6a" style="" class=""/></g></g></svg>
